<svg width="18" height="18" viewBox="0 0 18 18" fill="none" xmlns="http://www.w3.org/2000/svg">
<path d="M2.05111 4.87777L0.00951908 17.1849C-0.0276807 17.4081 0.0455189 17.6349 0.205118 17.7945C0.205918 17.7957 0.205918 17.7957 0.205918 17.7957C0.367117 17.9557 0.594716 18.0281 0.818314 17.9901L13.0922 15.9157C13.351 15.8725 13.5634 15.6869 13.6426 15.4369C13.723 15.1881 13.6562 14.9137 13.4702 14.7285L11.0703 12.3289L17.5138 5.88576C17.7878 5.61176 17.7878 5.16856 17.5138 4.89457L13.0734 0.45379C12.7994 0.179791 12.3562 0.179791 12.0819 0.45379L5.63909 6.89695L3.2383 4.49617C3.0527 4.31137 2.7787 4.24537 2.5287 4.32497C2.27871 4.40497 2.09431 4.61817 2.05111 4.87777Z" fill="white"/>
</svg>
