<svg width="18" height="18" viewBox="0 0 18 18" fill="none" xmlns="http://www.w3.org/2000/svg">
<path d="M15.949 13.1226L17.9906 0.815472C18.0278 0.592274 17.9546 0.365475 17.795 0.205876C17.7942 0.204676 17.7942 0.204676 17.7942 0.204676C17.6326 0.0450765 17.4054 -0.0277231 17.1818 0.00987673L4.90783 2.08427C4.64944 2.12787 4.43704 2.31306 4.35704 2.56306C4.27704 2.81226 4.34384 3.08626 4.52944 3.27186L6.92982 5.67105L0.486261 12.1146C0.212262 12.389 0.212262 12.8322 0.486261 13.1066L4.92704 17.547C5.20103 17.821 5.64463 17.821 5.91863 17.547L12.3614 11.1038L14.7618 13.5042C14.9478 13.6894 15.2218 13.7558 15.4718 13.6762C15.7214 13.5954 15.9062 13.3822 15.949 13.1226Z" fill="white"/>
</svg>
