<svg xmlns="http://www.w3.org/2000/svg" viewBox="0 0 51 46.49"><defs><style>.cls-1{fill:#63c9d6;stroke:#000;}</style></defs><g id="Layer_2" data-name="Layer 2"><g id="Layer_1-2" data-name="Layer 1"><path d="M2.06,26.73a5.71,5.71,0,0,1,0-5.58L11.43,4.61a5.46,5.46,0,0,1,4.74-2.78H34.91a5.44,5.44,0,0,1,4.73,2.78L49,21.15a5.66,5.66,0,0,1,0,5.58L39.64,43.27a5.44,5.44,0,0,1-4.73,2.78H16.17a5.46,5.46,0,0,1-4.74-2.78Z"/><path class="cls-1" d="M1.34,26.4a6.35,6.35,0,0,1,0-6.31L10.71,3.66A6.23,6.23,0,0,1,16.12.5H34.88a6.23,6.23,0,0,1,5.41,3.16l9.37,16.43a6.35,6.35,0,0,1,0,6.31L40.29,42.83A6.23,6.23,0,0,1,34.88,46H16.12a6.23,6.23,0,0,1-5.41-3.16Zm4.51-6.78a7.32,7.32,0,0,0,0,7.25l6.73,11.79a7.13,7.13,0,0,0,6.19,3.62H32.23a7.13,7.13,0,0,0,6.19-3.62l6.73-11.79a7.32,7.32,0,0,0,0-7.25L38.42,7.83a7.13,7.13,0,0,0-6.19-3.62H18.77a7.13,7.13,0,0,0-6.19,3.62Z"/></g></g></svg>