<svg width="38" height="38" viewBox="0 0 38 38" fill="none" xmlns="http://www.w3.org/2000/svg">
<g opacity="0.9">
<path fill-rule="evenodd" clip-rule="evenodd" d="M31.3935 6.61743C28.2161 3.45075 23.8397 1.48314 19 1.48314C14.1712 1.48314 9.78435 3.45075 6.61768 6.61743C3.451 9.7841 1.48377 14.1606 1.48377 19.0002C1.48377 23.8398 3.451 28.2159 6.61768 31.3933C9.78435 34.56 14.1712 36.5168 19 36.5168C23.8397 36.5168 28.2161 34.56 31.3935 31.3933C34.5602 28.2159 36.5167 23.8398 36.5167 19.0002C36.5167 14.1606 34.5602 9.7841 31.3935 6.61743ZM32.4349 5.56556C35.8752 9.00581 38.0001 13.7503 38.0001 19C38.0001 24.2494 35.8752 28.9943 32.4349 32.4345C29.005 35.8748 24.2498 37.9997 19 37.9997C13.761 37.9997 9.0062 35.8748 5.56556 32.4345C2.12531 28.9943 0 24.2494 0 19C0 13.7503 2.12531 9.00581 5.56556 5.56556C9.0062 2.12493 13.761 0 19 0C24.2498 0 29.005 2.12493 32.4349 5.56556Z" fill="white"/>
</g>
<path d="M26.7089 21.338C25.5456 21.338 24.4034 21.1561 23.3211 20.7984C22.7907 20.6175 22.1387 20.7835 21.815 21.1159L19.6787 22.7287C17.2011 21.4061 15.675 19.8805 14.3705 17.4215L15.9358 15.3408C16.3424 14.9347 16.4883 14.3414 16.3135 13.7848C15.9543 12.6967 15.7718 11.5551 15.7718 10.3914C15.7719 9.55065 15.0879 8.8667 14.2473 8.8667H10.758C9.91735 8.8667 9.2334 9.55065 9.2334 10.3913C9.2334 20.0274 17.0728 27.8667 26.7089 27.8667C27.5495 27.8667 28.2335 27.1828 28.2335 26.3421V22.8626C28.2334 22.022 27.5495 21.338 26.7089 21.338Z" fill="white"/>
</svg>
