<svg width="35" height="29" viewBox="0 0 35 29" fill="none" xmlns="http://www.w3.org/2000/svg">
<path d="M13.3915 14.4979L0.861916 4.13898C0.313225 3.68428 0.00497437 3.06759 0.00497437 2.42456C0.00497437 1.78152 0.313225 1.16483 0.861916 0.710136C1.41061 0.255444 2.15478 0 2.93074 0C3.70671 0 4.45089 0.255444 4.99958 0.710136L17.5 11.0932L30.0004 0.710136C30.5491 0.255444 31.2933 -4.79096e-09 32.0693 0C32.8452 4.79097e-09 33.5894 0.255444 34.1381 0.710136C34.6868 1.16483 34.995 1.78152 34.995 2.42456C34.995 3.06759 34.6868 3.68428 34.1381 4.13898L21.6085 14.4979L34.1381 24.8569C34.4112 25.0814 34.628 25.3484 34.7759 25.6427C34.9238 25.9369 35 26.2526 35 26.5713C35 26.8901 34.9238 27.2057 34.7759 27.5C34.628 27.7942 34.4112 28.0613 34.1381 28.2857C33.8672 28.5121 33.5449 28.6917 33.1899 28.8143C32.8348 28.9369 32.4539 29 32.0693 29C31.6846 29 31.3037 28.9369 30.9487 28.8143C30.5936 28.6917 30.2713 28.5121 30.0004 28.2857L17.5 17.9026L4.99958 28.2857C4.7287 28.5121 4.40643 28.6917 4.05135 28.8143C3.69627 28.9369 3.31541 29 2.93074 29C2.54608 29 2.16523 28.9369 1.81015 28.8143C1.45507 28.6917 1.1328 28.5121 0.861916 28.2857C0.588806 28.0613 0.372028 27.7942 0.224094 27.5C0.0761604 27.2057 0 26.8901 0 26.5713C0 26.2526 0.0761604 25.9369 0.224094 25.6427C0.372028 25.3484 0.588806 25.0814 0.861916 24.8569L13.3915 14.4979Z" fill="white"/>
</svg>
