<svg width="57" height="57" viewBox="0 0 57 57" fill="none" xmlns="http://www.w3.org/2000/svg">
<path d="M28.5 0C22.8632 0 17.3531 1.6715 12.6663 4.80311C7.97946 7.93473 4.32654 12.3858 2.16945 17.5935C0.0123486 22.8012 -0.552046 28.5316 0.547632 34.0601C1.64731 39.5885 4.36167 44.6667 8.34747 48.6525C12.3333 52.6383 17.4115 55.3527 22.9399 56.4524C28.4684 57.552 34.1988 56.9877 39.4065 54.8306C44.6142 52.6735 49.0653 49.0205 52.1969 44.3337C55.3285 39.6469 57 34.1368 57 28.5C56.9916 20.9439 53.9862 13.6997 48.6432 8.35676C43.3003 3.0138 36.0561 0.00842352 28.5 0ZM39.6791 36.3209C39.906 36.54 40.0869 36.802 40.2114 37.0918C40.3358 37.3815 40.4014 37.6932 40.4041 38.0085C40.4068 38.3239 40.3468 38.6366 40.2273 38.9285C40.1079 39.2204 39.9316 39.4856 39.7086 39.7086C39.4856 39.9315 39.2204 40.1079 38.9285 40.2273C38.6366 40.3467 38.3239 40.4068 38.0086 40.4041C37.6932 40.4013 37.3816 40.3358 37.0918 40.2114C36.802 40.0869 36.54 39.906 36.3209 39.6791L28.5 31.8585L20.6791 39.6791C20.2312 40.1117 19.6313 40.3511 19.0086 40.3457C18.3858 40.3403 17.7902 40.0905 17.3498 39.6502C16.9095 39.2098 16.6597 38.6142 16.6543 37.9914C16.6489 37.3687 16.8883 36.7688 17.3209 36.3209L25.1415 28.5L17.3209 20.6791C16.8883 20.2312 16.6489 19.6313 16.6543 19.0085C16.6597 18.3858 16.9095 17.7901 17.3498 17.3498C17.7902 16.9095 18.3858 16.6597 19.0086 16.6543C19.6313 16.6489 20.2312 16.8882 20.6791 17.3209L28.5 25.1415L36.3209 17.3209C36.7688 16.8882 37.3687 16.6489 37.9915 16.6543C38.6142 16.6597 39.2099 16.9095 39.6502 17.3498C40.0905 17.7901 40.3403 18.3858 40.3457 19.0085C40.3511 19.6313 40.1118 20.2312 39.6791 20.6791L31.8585 28.5L39.6791 36.3209Z" fill="white"/>
</svg>
