<svg width="38" height="38" viewBox="0 0 38 38" fill="none" xmlns="http://www.w3.org/2000/svg">
<g opacity="0.9">
<path fill-rule="evenodd" clip-rule="evenodd" d="M31.0906 6.55371C27.9438 3.41756 23.6095 1.46892 18.8166 1.46892C14.0244 1.46892 9.68974 3.41756 6.55359 6.55371C3.41707 9.68985 1.4688 14.0241 1.4688 18.8171C1.4688 23.61 3.41707 27.944 6.55359 31.0907C9.68974 34.2269 14.0244 36.1649 18.8166 36.1649C23.6095 36.1649 27.9438 34.2269 31.0906 31.0907C34.2268 27.944 36.1648 23.61 36.1648 18.8171C36.1648 14.0241 34.2268 9.68985 31.0906 6.55371ZM18.8165 0C24.0157 0 28.7148 2.10444 32.1218 5.51191C35.5289 8.919 37.6334 13.6177 37.6334 18.8169C37.6334 24.0157 35.5289 28.7148 32.1218 32.1218C28.7148 35.5289 24.0157 37.6334 18.8165 37.6334C13.6177 37.6334 8.91862 35.5289 5.51153 32.1218C2.10444 28.7148 0 24.0157 0 18.8169C0 13.6177 2.10444 8.919 5.51153 5.51191C8.91862 2.10444 13.6177 0 18.8165 0Z" fill="white"/>
<path fill-rule="evenodd" clip-rule="evenodd" d="M20.2546 14.972V13.43C20.2546 12.6905 20.7444 12.5134 21.0989 12.5134C21.4424 12.5134 23.2554 12.5134 23.2554 12.5134V9.2207H20.2861C16.9831 9.2207 16.2433 11.6588 16.2433 13.2426V14.972H14.3262V18.8169H16.2642C16.2642 23.1823 16.2642 28.4233 16.2642 28.4233H20.109C20.109 28.4233 20.109 23.1094 20.109 18.8169H22.9533L23.0784 17.306L23.3075 14.972H20.2546Z" fill="white"/>
</g>
</svg>
