<svg width="17" height="29" viewBox="0 0 17 29" fill="none" xmlns="http://www.w3.org/2000/svg">
<path d="M7.01476 0C5.0719 0 3.59958 1.47085 3.59958 3.41176C3.59958 5.35268 5.0719 6.82353 7.01476 6.82353C8.95762 6.82353 10.4299 5.35268 10.4299 3.41176C10.4299 1.47085 8.95762 0 7.01476 0ZM0 9.59085V12.017C0 12.017 4.85714 10.9556 4.85714 15.8078V21.2992C4.85714 26.1515 0 26.5739 0 26.5739V29H17V26.5739C17 26.5739 11.6319 26.5739 11.6319 21.7216V12.017C11.6319 10.8039 10.9286 9.59085 9.71428 9.59085H0Z" fill="white"/>
</svg>
