<svg width="34" height="39" viewBox="0 0 34 39" fill="none" xmlns="http://www.w3.org/2000/svg">
<g filter="url(#filter0_ddd_3_207)">
<path d="M16.6765 31.9436C14.9305 30.4543 13.3121 28.8216 11.8383 27.0625C9.62648 24.4208 7 20.4867 7 16.7377C6.99904 14.8231 7.56609 12.9512 8.62938 11.359C9.69267 9.76675 11.2044 8.52574 12.9733 7.793C14.7421 7.06027 16.6886 6.86875 18.5664 7.24268C20.4441 7.61661 22.1687 8.53918 23.5219 9.89364C24.4229 10.7906 25.137 11.8573 25.623 13.0321C26.1089 14.2069 26.3571 15.4664 26.353 16.7377C26.353 20.4867 23.7265 24.4208 21.5148 27.0625C20.0409 28.8216 18.4225 30.4543 16.6765 31.9436ZM16.6765 12.5906C15.5766 12.5906 14.5218 13.0275 13.7441 13.8053C12.9664 14.583 12.5294 15.6378 12.5294 16.7377C12.5294 17.8376 12.9664 18.8924 13.7441 19.6701C14.5218 20.4478 15.5766 20.8848 16.6765 20.8848C17.7764 20.8848 18.8312 20.4478 19.6089 19.6701C20.3867 18.8924 20.8236 17.8376 20.8236 16.7377C20.8236 15.6378 20.3867 14.583 19.6089 13.8053C18.8312 13.0275 17.7764 12.5906 16.6765 12.5906Z" fill="white"/>
</g>
<defs>
<filter id="filter0_ddd_3_207" x="0.212555" y="0.268891" width="32.9279" height="38.4622" filterUnits="userSpaceOnUse" color-interpolation-filters="sRGB">
<feFlood flood-opacity="0" result="BackgroundImageFix"/>
<feColorMatrix in="SourceAlpha" type="matrix" values="0 0 0 0 0 0 0 0 0 0 0 0 0 0 0 0 0 0 127 0" result="hardAlpha"/>
<feOffset/>
<feGaussianBlur stdDeviation="3.39372"/>
<feComposite in2="hardAlpha" operator="out"/>
<feColorMatrix type="matrix" values="0 0 0 0 1 0 0 0 0 1 0 0 0 0 1 0 0 0 0.25 0"/>
<feBlend mode="normal" in2="BackgroundImageFix" result="effect1_dropShadow_3_207"/>
<feColorMatrix in="SourceAlpha" type="matrix" values="0 0 0 0 0 0 0 0 0 0 0 0 0 0 0 0 0 0 127 0" result="hardAlpha"/>
<feOffset/>
<feGaussianBlur stdDeviation="2.26248"/>
<feComposite in2="hardAlpha" operator="out"/>
<feColorMatrix type="matrix" values="0 0 0 0 1 0 0 0 0 1 0 0 0 0 1 0 0 0 0.3 0"/>
<feBlend mode="normal" in2="effect1_dropShadow_3_207" result="effect2_dropShadow_3_207"/>
<feColorMatrix in="SourceAlpha" type="matrix" values="0 0 0 0 0 0 0 0 0 0 0 0 0 0 0 0 0 0 127 0" result="hardAlpha"/>
<feOffset/>
<feGaussianBlur stdDeviation="1.13124"/>
<feComposite in2="hardAlpha" operator="out"/>
<feColorMatrix type="matrix" values="0 0 0 0 1 0 0 0 0 1 0 0 0 0 1 0 0 0 0.35 0"/>
<feBlend mode="normal" in2="effect2_dropShadow_3_207" result="effect3_dropShadow_3_207"/>
<feBlend mode="normal" in="SourceGraphic" in2="effect3_dropShadow_3_207" result="shape"/>
</filter>
</defs>
</svg>
