<?xml version="1.0" standalone="no"?>
<!DOCTYPE svg PUBLIC "-//W3C//DTD SVG 20010904//EN"
 "http://www.w3.org/TR/2001/REC-SVG-20010904/DTD/svg10.dtd">
<svg version="1.0" xmlns="http://www.w3.org/2000/svg"
 width="750.000000pt" height="372.000000pt" viewBox="0 0 750.000000 372.000000"
 preserveAspectRatio="xMidYMid meet">

<g transform="translate(0.000000,372.000000) scale(0.100000,-0.100000)"
fill="#000000" stroke="none">
<path d="M1611 3697 c2 -1 15 -11 29 -22 l25 -20 -19 23 c-11 12 -24 22 -29
22 -6 0 -8 -1 -6 -3z"/>
<path d="M2380 3635 c0 -3 15 -11 33 -19 74 -30 158 -136 126 -157 -10 -6 -11
-9 -1 -9 6 0 12 -9 12 -21 0 -53 -89 -174 -121 -166 -10 3 -16 0 -13 -7 6 -15
-81 -68 -183 -111 -133 -57 -122 -60 -192 42 -33 48 -79 108 -102 133 l-41 45
35 -45 c19 -25 63 -85 97 -135 l61 -90 -43 -13 c-55 -16 -255 -49 -332 -55
l-58 -4 6 69 c9 98 14 206 9 183 -2 -11 -9 -72 -16 -135 l-12 -115 -123 2
c-115 1 -252 17 -279 32 -13 7 59 105 168 227 35 40 28 35 -19 -15 -40 -42
-96 -106 -124 -142 l-51 -67 -57 20 c-78 26 -157 75 -193 120 -23 29 -31 51
-35 92 -4 48 -1 58 21 80 14 13 22 27 19 31 -3 3 12 24 34 47 l39 41 -37 -28
c-21 -15 -38 -30 -38 -34 0 -3 -12 -19 -26 -34 -35 -38 -45 -128 -19 -176 9
-18 13 -37 8 -40 -4 -4 -42 -35 -83 -68 -108 -87 -284 -274 -364 -386 -37 -53
-70 -97 -72 -97 -2 0 -16 24 -31 53 -22 42 -27 65 -28 124 0 49 -3 65 -8 50
-5 -12 -7 -51 -5 -87 3 -60 14 -91 47 -145 10 -17 5 -33 -44 -120 -30 -55 -72
-143 -92 -195 -20 -52 -47 -122 -61 -155 -14 -33 -37 -95 -52 -139 l-27 -79
-20 44 c-12 24 -23 51 -26 59 -4 11 -6 10 -6 -4 -1 -10 10 -44 23 -75 23 -51
26 -75 33 -266 4 -115 9 -188 11 -161 l3 50 30 -90 c92 -274 309 -456 497
-415 26 5 48 8 50 6 5 -5 51 -239 48 -242 -2 -2 -45 10 -96 27 -110 36 -239
95 -307 140 -60 41 -153 130 -153 147 0 7 -4 13 -9 13 -5 0 -8 8 -6 18 1 9 0
11 -2 4 -3 -7 -9 -10 -14 -7 -16 10 -10 -12 7 -26 9 -8 25 -32 36 -54 10 -22
16 -32 13 -22 -3 12 14 2 47 -28 94 -85 285 -180 449 -224 l46 -13 28 -81 c39
-118 117 -271 181 -356 30 -40 53 -75 52 -77 -2 -2 -40 10 -83 25 -117 42
-124 43 -80 21 22 -11 72 -30 110 -42 49 -15 86 -35 125 -68 82 -69 102 -79
40 -20 l-55 52 35 -6 c19 -2 76 -12 125 -20 135 -23 293 -36 452 -36 l141 0
12 -37 c17 -52 71 -153 82 -153 5 0 6 -5 3 -10 -4 -6 5 -10 21 -10 l27 0 -25
19 c-24 19 -70 109 -83 163 -8 30 -20 27 194 48 147 14 328 45 464 79 59 15
107 23 107 19 0 -22 -63 -128 -101 -173 -39 -43 -40 -46 -12 -26 39 29 86 94
118 163 l24 53 118 40 c127 42 369 158 418 200 19 16 4 10 -40 -16 -38 -23
-111 -62 -162 -85 -104 -49 -323 -127 -323 -115 0 4 7 30 15 57 22 75 43 222
51 351 4 68 11 116 18 118 248 83 512 202 640 289 38 25 70 46 72 46 1 0 5
-10 7 -23 4 -19 4 -19 6 5 1 19 26 51 89 115 49 50 100 112 116 143 34 64 25
58 -27 -21 -21 -31 -66 -83 -100 -115 l-62 -59 -3 58 -3 58 60 64 c108 116
173 282 175 450 1 80 -3 102 -38 203 -36 102 -41 111 -57 100 -9 -7 -32 -24
-50 -38 l-34 -25 19 29 c45 70 57 97 75 166 14 57 20 69 25 52 5 -16 15 -22
35 -22 43 0 52 19 49 97 l-3 68 -63 5 c-37 3 -63 1 -66 -5 -2 -5 3 -27 12 -48
21 -54 10 -136 -29 -215 -33 -67 -143 -193 -190 -217 l-27 -15 -39 98 c-21 53
-39 100 -41 105 -8 17 38 5 73 -19 l38 -25 66 46 c123 85 117 79 97 110 -31
47 -102 113 -147 136 -53 27 -151 36 -216 20 -45 -12 -49 -11 -63 10 -8 13
-40 59 -71 102 l-56 78 72 72 c76 76 117 148 130 226 l7 43 55 -53 c30 -30 82
-89 115 -131 34 -43 63 -78 65 -78 11 0 -73 104 -154 191 -51 54 -93 107 -93
116 0 22 -42 110 -64 138 -9 11 -4 -5 12 -35 17 -30 33 -68 36 -83 8 -34 3
-32 -69 28 -51 43 -181 132 -225 155 -41 21 -20 5 80 -61 147 -96 220 -159
220 -190 0 -77 -78 -214 -161 -280 l-42 -33 -55 65 c-83 96 -237 246 -327 318
-101 82 -105 84 -105 79 0 -3 37 -34 83 -70 102 -81 241 -217 330 -322 l68
-80 -68 -44 c-106 -68 -270 -148 -398 -192 l-116 -40 -15 38 c-77 189 -157
355 -239 497 -31 54 -53 101 -48 105 4 4 37 17 73 30 75 26 159 67 212 103
l36 25 39 -25 38 -25 -33 29 -33 28 31 30 c42 40 67 82 78 132 8 35 6 50 -13
91 -13 29 -39 61 -61 78 -22 16 -41 32 -44 35 -7 8 -70 29 -70 24z m-1320
-534 c30 -16 74 -34 98 -41 23 -7 42 -15 42 -16 0 -2 -27 -44 -59 -94 -71
-108 -184 -328 -236 -460 -21 -52 -39 -98 -41 -102 -7 -11 -167 47 -254 93
-46 23 -105 64 -134 90 l-51 47 48 71 c103 150 267 324 426 453 l46 36 30 -24
c17 -13 55 -37 85 -53z m1102 -133 c31 -57 70 -131 87 -164 44 -91 151 -342
151 -357 0 -34 -356 -102 -682 -131 l-68 -7 0 283 c0 156 3 313 6 349 l7 66
91 7 c50 3 141 17 201 30 61 13 119 24 130 25 16 1 33 -21 77 -101z m-854 57
c46 -8 140 -18 209 -21 l126 -7 -7 -136 c-3 -75 -9 -230 -12 -345 l-7 -209
-206 6 c-259 7 -521 45 -521 75 0 26 84 227 144 346 66 128 173 306 184 306 4
0 44 -7 90 -15z m1789 -431 c34 -49 62 -92 63 -95 0 -4 -24 -18 -52 -33 -154
-76 -275 -228 -324 -406 -19 -68 -26 -271 -12 -322 8 -25 5 -27 -42 -43 -28
-9 -55 -15 -61 -13 -6 2 -30 80 -54 174 -24 94 -71 253 -105 355 -34 101 -63
190 -64 197 0 9 43 29 120 57 148 52 285 117 379 179 39 25 74 44 80 43 5 -2
37 -44 72 -93z m-2509 -132 c42 -22 118 -54 167 -71 51 -17 90 -36 90 -43 0
-7 -16 -68 -35 -135 l-34 -121 -64 59 c-34 33 -91 74 -125 91 -56 29 -71 33
-147 33 -93 0 -139 -17 -194 -71 l-29 -29 8 25 c26 86 142 333 177 377 8 10
22 2 59 -30 27 -24 84 -62 127 -85z m1866 -154 c64 -183 176 -584 176 -633 0
-13 -90 -39 -100 -28 -4 4 -17 60 -29 123 -30 153 -88 410 -94 416 -2 3 -60
-6 -128 -20 -68 -13 -140 -27 -160 -30 l-35 -6 -62 -248 c-34 -136 -69 -270
-77 -298 l-16 -51 -52 -7 c-29 -3 -71 -6 -94 -6 l-43 0 -34 69 -35 68 -10 214
c-6 118 -11 260 -11 315 l0 101 83 7 c202 17 558 77 632 106 46 19 51 13 89
-92z m-1404 12 c83 -15 178 -22 341 -27 l227 -6 6 -186 c3 -102 8 -224 9 -270
3 -69 1 -80 -9 -66 -11 14 -88 195 -123 288 -10 24 -16 27 -63 28 -29 1 -99 4
-154 8 l-101 6 -7 -104 c-3 -57 -6 -187 -6 -288 0 -100 -1 -183 -3 -183 -11 0
-177 22 -198 26 -25 5 -26 8 -32 92 -7 111 -46 245 -101 348 l-43 80 14 55 c7
30 25 94 40 143 l27 88 30 -6 c17 -3 83 -15 146 -26z m2282 -163 c21 -50 40
-100 44 -109 4 -13 -8 -24 -54 -47 -43 -22 -62 -37 -64 -52 -2 -17 -29 -36
-105 -76 l-102 -54 -7 47 c-10 68 3 160 30 220 40 88 130 163 196 164 22 0 29
-10 62 -93z m-2816 -161 c62 -29 117 -92 145 -165 26 -69 47 -207 34 -220 -21
-19 -337 108 -409 164 -18 13 -18 19 -7 67 24 105 88 178 156 178 17 0 53 -11
81 -24z m3052 -139 c-6 -66 -38 -155 -67 -181 -16 -14 -18 -9 -34 76 -10 50
-16 93 -13 95 6 7 111 72 115 73 2 0 1 -28 -1 -63z m-279 -14 c8 -32 15 -61
17 -65 3 -4 33 8 68 27 l63 35 11 -51 c7 -28 15 -74 18 -102 5 -51 5 -53 -30
-76 -46 -31 -103 -50 -147 -51 -48 0 -132 43 -164 85 -30 40 -64 112 -65 137
0 11 34 35 103 71 56 29 105 52 108 51 3 -2 11 -29 18 -61z m-2988 -104 c46
-33 207 -105 303 -135 l88 -29 -4 -46 c-6 -64 -46 -139 -87 -166 -116 -77
-284 55 -327 256 -14 68 -18 141 -8 141 3 0 19 -9 35 -21z m1922 -126 c5 -40
4 -43 -19 -43 -28 0 -28 1 -13 72 13 58 21 50 32 -29z m571 44 c3 -19 24 -69
45 -113 49 -103 118 -174 208 -217 61 -28 77 -32 158 -32 98 1 175 22 247 70
l38 25 0 -57 c0 -32 -4 -63 -8 -69 -13 -21 -178 -123 -278 -173 -137 -68 -401
-171 -440 -171 -8 0 -14 36 -18 113 -10 167 -34 367 -60 499 l-23 117 56 20
c31 11 59 20 62 20 4 1 10 -14 13 -32z m-1304 -139 c0 -15 -38 -8 -44 8 -3 9
-6 39 -6 67 l1 52 24 -59 c14 -33 25 -63 25 -68z m1164 35 c38 -211 66 -458
66 -590 l0 -61 -147 -36 c-240 -57 -477 -94 -719 -112 -84 -6 -92 -5 -97 12
-10 35 -29 225 -24 230 3 3 13 -8 21 -24 l16 -31 72 6 c188 15 191 15 200 48
4 17 35 145 69 285 33 140 61 255 62 256 1 1 14 4 29 8 33 7 29 24 71 -291 19
-134 35 -245 38 -247 4 -4 268 47 294 58 12 4 -22 269 -60 470 -8 44 -14 81
-12 82 3 2 81 22 93 23 7 1 18 -35 28 -86z m-1588 -45 l100 -11 12 -171 c6
-94 17 -217 23 -272 l12 -101 81 -7 c44 -3 110 -6 144 -6 l64 0 -6 38 c-10 59
-34 298 -42 405 l-7 97 29 0 c28 0 33 -7 122 -199 56 -121 92 -212 93 -232 0
-19 8 -93 18 -165 l17 -131 -76 -6 c-174 -13 -588 22 -787 68 -82 19 -78 12
-109 172 -20 107 -19 114 26 145 80 55 144 189 157 326 3 35 11 62 17 62 6 0
56 -5 112 -12z m829 -100 c-15 -51 -30 -97 -33 -102 -2 -4 -27 33 -54 83 -28
51 -47 95 -44 98 6 6 147 21 154 16 2 -1 -8 -44 -23 -95z m822 -655 c-7 -134
-26 -262 -52 -349 l-15 -52 -78 -21 c-173 -46 -451 -90 -655 -104 l-57 -4 -10
36 c-14 54 -46 213 -65 321 -8 52 -18 107 -21 121 l-5 27 98 7 c238 16 573 71
768 124 107 29 99 39 92 -106z m-1812 33 c192 -40 573 -70 748 -58 44 3 77 1
77 -5 0 -24 52 -294 74 -388 14 -59 26 -108 26 -111 0 -8 -257 -4 -375 6 -113
10 -243 29 -346 51 -41 9 -52 18 -97 77 -65 85 -141 231 -181 345 -36 103 -37
110 -13 103 9 -3 49 -12 87 -20z"/>
<path d="M1694 3546 c-23 -18 -2 -29 36 -21 27 6 42 24 23 26 -5 0 -16 2 -25
4 -9 2 -25 -3 -34 -9z"/>
<path d="M1845 3420 c27 -27 51 -50 54 -50 3 0 -17 23 -44 50 -27 28 -51 50
-54 50 -3 0 17 -22 44 -50z"/>
<path d="M1524 3398 l-19 -23 23 19 c21 18 27 26 19 26 -2 0 -12 -10 -23 -22z"/>
<path d="M1691 3404 c0 -11 3 -14 6 -6 3 7 2 16 -1 19 -3 4 -6 -2 -5 -13z"/>
<path d="M2761 3366 c10 -9 109 -56 109 -51 0 5 -95 55 -106 55 -4 0 -5 -2 -3
-4z"/>
<path d="M1682 3340 c0 -14 2 -19 5 -12 2 6 2 18 0 25 -3 6 -5 1 -5 -13z"/>
<path d="M838 3334 c-38 -20 -36 -28 2 -9 17 9 30 18 30 20 0 7 -1 6 -32 -11z"/>
<path d="M1124 3304 c-18 -14 -18 -15 4 -4 12 6 22 13 22 15 0 8 -5 6 -26 -11z"/>
<path d="M774 3294 c-18 -14 -18 -15 4 -4 12 6 22 13 22 15 0 8 -5 6 -26 -11z"/>
<path d="M1040 3254 c-60 -40 -94 -69 -45 -39 82 50 115 75 102 75 -1 0 -27
-16 -57 -36z"/>
<path d="M669 3223 c-13 -16 -12 -17 4 -4 9 7 17 15 17 17 0 8 -8 3 -21 -13z"/>
<path d="M4122 3148 l3 -83 80 -3 c128 -5 126 -6 123 86 l-3 77 -103 3 -103 3
3 -83z"/>
<path d="M6117 3224 c-12 -12 -8 -139 5 -152 14 -14 175 -17 196 -3 9 5 12 29
10 82 l-3 74 -101 3 c-55 1 -103 0 -107 -4z"/>
<path d="M6687 3224 c-14 -14 -8 -141 7 -153 9 -8 47 -11 107 -9 l94 3 0 80 0
80 -101 3 c-55 1 -103 0 -107 -4z"/>
<path d="M624 3188 l-19 -23 23 19 c21 18 27 26 19 26 -2 0 -12 -10 -23 -22z"/>
<path d="M424 2998 l-19 -23 23 19 c21 18 27 26 19 26 -2 0 -12 -10 -23 -22z"/>
<path d="M3837 2993 c-4 -3 -7 -39 -7 -79 0 -87 0 -87 125 -82 l80 3 3 83 3
82 -99 0 c-54 0 -102 -3 -105 -7z"/>
<path d="M4407 2993 c-4 -3 -7 -39 -7 -79 0 -87 0 -87 125 -82 l80 3 3 83 3
82 -99 0 c-54 0 -102 -3 -105 -7z"/>
<path d="M4692 2918 l3 -83 80 -3 c128 -5 126 -6 123 86 l-3 77 -103 3 -103 3
3 -83z"/>
<path d="M5832 2918 l3 -83 100 0 100 0 3 83 3 82 -106 0 -106 0 3 -82z"/>
<path d="M6404 2987 c-3 -8 -4 -45 -2 -83 l3 -69 100 0 100 0 3 83 3 82 -101
0 c-75 0 -102 -3 -106 -13z"/>
<path d="M367 2923 c-4 -3 -7 -13 -7 -22 1 -13 3 -13 11 2 11 19 8 33 -4 20z"/>
<path d="M3546 2754 c-4 -9 7 -46 25 -85 l32 -69 67 0 c85 0 92 8 88 97 l-3
68 -101 3 c-87 2 -103 0 -108 -14z"/>
<path d="M3837 2763 c-4 -3 -7 -39 -7 -79 0 -85 -1 -84 105 -84 107 0 105 -1
105 91 l0 79 -98 0 c-54 0 -102 -3 -105 -7z"/>
<path d="M4120 2691 c0 -63 3 -80 16 -85 23 -9 167 -7 182 3 9 5 12 29 10 82
l-3 74 -102 3 -103 3 0 -80z"/>
<path d="M4407 2763 c-4 -3 -7 -39 -7 -79 0 -85 -2 -84 115 -84 91 0 103 7
100 55 -1 17 -3 49 -3 73 l-2 42 -98 0 c-54 0 -102 -3 -105 -7z"/>
<path d="M4692 2688 l3 -83 80 -3 c128 -5 126 -6 123 86 l-3 77 -103 3 -103 3
3 -83z"/>
<path d="M4977 2764 c-4 -4 -7 -40 -7 -80 0 -85 -2 -84 115 -84 59 0 86 4 94
14 7 9 11 41 9 83 l-3 68 -101 3 c-55 1 -103 0 -107 -4z"/>
<path d="M5547 2764 c-4 -4 -7 -40 -7 -80 0 -85 -2 -84 115 -84 59 0 86 4 94
14 7 9 11 41 9 83 l-3 68 -101 3 c-55 1 -103 0 -107 -4z"/>
<path d="M5832 2688 l3 -83 100 0 100 0 3 83 3 82 -106 0 -106 0 3 -82z"/>
<path d="M6117 2764 c-12 -12 -8 -139 5 -152 18 -18 182 -16 197 2 7 9 11 41
9 83 l-3 68 -101 3 c-55 1 -103 0 -107 -4z"/>
<path d="M6407 2763 c-4 -3 -7 -39 -7 -79 0 -87 0 -87 125 -82 l80 3 3 83 3
82 -99 0 c-54 0 -102 -3 -105 -7z"/>
<path d="M3530 2690 c6 -11 13 -20 16 -20 2 0 0 9 -6 20 -6 11 -13 20 -16 20
-2 0 0 -9 6 -20z"/>
<path d="M3560 2640 c6 -11 13 -20 16 -20 2 0 0 9 -6 20 -6 11 -13 20 -16 20
-2 0 0 -9 6 -20z"/>
<path d="M4122 2458 l3 -83 80 -3 c128 -5 126 -6 123 86 l-3 77 -103 3 -103 3
3 -83z"/>
<path d="M4407 2533 c-4 -3 -7 -39 -7 -79 0 -56 3 -73 16 -78 29 -11 179 -7
192 6 12 12 17 114 6 142 -5 13 -24 16 -103 16 -54 0 -101 -3 -104 -7z"/>
<path d="M4692 2458 l3 -83 80 -3 c128 -5 126 -6 123 86 l-3 77 -103 3 -103 3
3 -83z"/>
<path d="M4977 2534 c-4 -4 -7 -40 -7 -80 0 -85 -2 -84 115 -84 59 0 86 4 94
14 7 9 11 41 9 83 l-3 68 -101 3 c-55 1 -103 0 -107 -4z"/>
<path d="M5262 2458 l3 -83 100 0 100 0 0 80 0 80 -103 3 -103 3 3 -83z"/>
<path d="M5547 2534 c-4 -4 -7 -40 -7 -80 0 -85 -2 -84 115 -84 59 0 86 4 94
14 7 9 11 41 9 83 l-3 68 -101 3 c-55 1 -103 0 -107 -4z"/>
<path d="M5832 2458 l3 -83 100 0 100 0 3 83 3 82 -106 0 -106 0 3 -82z"/>
<path d="M6404 2527 c-3 -8 -4 -45 -2 -83 l3 -69 100 0 100 0 3 83 3 82 -101
0 c-75 0 -102 -3 -106 -13z"/>
<path d="M6687 2534 c-14 -14 -8 -141 7 -153 9 -8 47 -11 107 -9 l94 3 0 80 0
80 -101 3 c-55 1 -103 0 -107 -4z"/>
<path d="M7262 2458 l3 -83 100 0 100 0 0 80 0 80 -103 3 -103 3 3 -83z"/>
<path d="M3695 2337 c2 -10 13 -56 22 -102 10 -47 22 -84 28 -82 6 2 10 36 10
78 0 68 -2 74 -21 77 -12 2 -27 13 -33 25 -7 13 -10 15 -6 4z"/>
<path d="M3830 2230 l0 -80 105 0 105 0 0 80 0 80 -105 0 -105 0 0 -80z"/>
<path d="M4120 2230 l0 -80 38 -2 c20 0 57 -3 82 -5 88 -6 91 -3 88 85 l-3 77
-102 3 -103 3 0 -81z"/>
<path d="M4407 2303 c-4 -3 -7 -39 -7 -79 0 -56 3 -73 16 -78 29 -11 179 -7
192 6 12 12 17 114 6 142 -5 13 -24 16 -103 16 -54 0 -101 -3 -104 -7z"/>
<path d="M4692 2228 l3 -83 80 -3 c128 -5 126 -6 123 86 l-3 77 -103 3 -103 3
3 -83z"/>
<path d="M5260 2231 c0 -92 -2 -91 105 -91 107 0 105 -1 105 91 l0 79 -105 0
-105 0 0 -79z"/>
<path d="M5547 2304 c-4 -4 -7 -40 -7 -80 0 -85 -2 -84 115 -84 59 0 86 4 94
14 7 9 11 41 9 83 l-3 68 -101 3 c-55 1 -103 0 -107 -4z"/>
<path d="M5830 2231 c0 -92 -2 -91 105 -91 107 0 105 -1 105 91 l0 79 -105 0
-105 0 0 -79z"/>
<path d="M6117 2304 c-12 -12 -8 -139 5 -152 18 -18 182 -16 197 2 7 9 11 41
9 83 l-3 68 -101 3 c-55 1 -103 0 -107 -4z"/>
<path d="M6687 2304 c-12 -12 -8 -139 5 -152 14 -14 175 -17 196 -3 9 5 12 29
10 82 l-3 74 -101 3 c-55 1 -103 0 -107 -4z"/>
<path d="M6977 2304 c-4 -4 -7 -40 -7 -80 0 -85 -2 -84 115 -84 59 0 86 4 94
14 7 9 11 41 9 83 l-3 68 -101 3 c-55 1 -103 0 -107 -4z"/>
<path d="M7262 2228 l3 -83 80 -3 c127 -5 125 -6 125 88 l0 80 -105 0 -106 0
3 -82z"/>
<path d="M53 2095 c0 -22 2 -30 4 -17 2 12 2 30 0 40 -3 9 -5 -1 -4 -23z"/>
<path d="M3830 2000 c0 -94 -2 -93 125 -88 l80 3 3 83 3 82 -106 0 -105 0 0
-80z"/>
<path d="M4117 2073 c-10 -19 -8 -135 3 -149 14 -16 174 -20 198 -5 9 5 12 29
10 82 l-3 74 -102 3 c-56 1 -103 -1 -106 -5z"/>
<path d="M4407 2073 c-4 -3 -7 -39 -7 -79 0 -56 3 -73 16 -78 29 -11 179 -7
192 6 12 12 17 114 6 142 -5 13 -24 16 -103 16 -54 0 -101 -3 -104 -7z"/>
<path d="M4692 1998 l3 -83 80 -3 c128 -5 126 -6 123 86 l-3 77 -103 3 -103 3
3 -83z"/>
<path d="M4977 2074 c-4 -4 -7 -40 -7 -80 0 -85 -2 -84 115 -84 59 0 86 4 94
14 7 9 11 41 9 83 l-3 68 -101 3 c-55 1 -103 0 -107 -4z"/>
<path d="M5262 1998 l3 -83 80 -3 c127 -5 125 -6 125 88 l0 80 -105 0 -106 0
3 -82z"/>
<path d="M5832 1998 l3 -83 100 0 100 0 3 83 3 82 -106 0 -106 0 3 -82z"/>
<path d="M6117 2074 c-12 -12 -8 -139 5 -152 14 -14 175 -17 196 -3 9 5 12 29
10 82 l-3 74 -101 3 c-55 1 -103 0 -107 -4z"/>
<path d="M6402 1998 l3 -83 100 0 100 0 3 83 3 82 -106 0 -106 0 3 -82z"/>
<path d="M6687 2074 c-14 -14 -8 -141 7 -153 9 -8 47 -11 107 -9 l94 3 0 80 0
80 -101 3 c-55 1 -103 0 -107 -4z"/>
<path d="M7262 1998 l3 -83 100 0 100 0 3 83 3 82 -106 0 -106 0 3 -82z"/>
<path d="M4117 1844 c-12 -12 -8 -139 5 -152 14 -14 175 -17 196 -3 9 5 12 29
10 82 l-3 74 -101 3 c-55 1 -103 0 -107 -4z"/>
<path d="M4692 1768 l3 -83 80 -3 c127 -5 125 -6 125 88 l0 80 -105 0 -106 0
3 -82z"/>
<path d="M4977 1844 c-4 -4 -7 -40 -7 -80 0 -85 -2 -84 115 -84 59 0 86 4 94
14 7 9 11 41 9 83 l-3 68 -101 3 c-55 1 -103 0 -107 -4z"/>
<path d="M5260 1771 c0 -92 -2 -91 105 -91 107 0 105 -1 105 91 l0 79 -105 0
-105 0 0 -79z"/>
<path d="M5547 1844 c-4 -4 -7 -40 -7 -80 0 -85 -2 -84 115 -84 59 0 86 4 94
14 7 9 11 41 9 83 l-3 68 -101 3 c-55 1 -103 0 -107 -4z"/>
<path d="M5832 1768 l3 -83 100 0 100 0 3 83 3 82 -106 0 -106 0 3 -82z"/>
<path d="M6117 1844 c-12 -12 -8 -139 5 -152 18 -18 182 -16 197 2 7 9 11 41
9 83 l-3 68 -101 3 c-55 1 -103 0 -107 -4z"/>
<path d="M6400 1770 c0 -94 -2 -93 125 -88 l80 3 3 83 3 82 -106 0 -105 0 0
-80z"/>
<path d="M6687 1844 c-12 -12 -8 -139 5 -152 14 -14 175 -17 196 -3 9 5 12 29
10 82 l-3 74 -101 3 c-55 1 -103 0 -107 -4z"/>
<path d="M6977 1844 c-4 -4 -7 -40 -7 -80 0 -85 -2 -84 115 -84 59 0 86 4 94
14 7 9 11 41 9 83 l-3 68 -101 3 c-55 1 -103 0 -107 -4z"/>
<path d="M7262 1768 l3 -83 80 -3 c127 -5 125 -6 125 88 l0 80 -105 0 -106 0
3 -82z"/>
<path d="M4117 1614 c-12 -12 -8 -139 5 -152 14 -14 175 -17 196 -3 9 5 12 29
10 82 l-3 74 -101 3 c-55 1 -103 0 -107 -4z"/>
<path d="M4407 1613 c-4 -3 -7 -39 -7 -79 0 -56 3 -73 16 -78 29 -11 179 -7
192 6 12 12 17 114 6 142 -5 13 -24 16 -103 16 -54 0 -101 -3 -104 -7z"/>
<path d="M4692 1538 l3 -83 80 -3 c128 -5 126 -6 123 86 l-3 77 -103 3 -103 3
3 -83z"/>
<path d="M4977 1614 c-4 -4 -7 -40 -7 -80 0 -85 -2 -84 115 -84 59 0 86 4 94
14 7 9 11 41 9 83 l-3 68 -101 3 c-55 1 -103 0 -107 -4z"/>
<path d="M5262 1538 l3 -83 80 -3 c128 -5 126 -6 123 86 l-3 77 -103 3 -103 3
3 -83z"/>
<path d="M5547 1614 c-4 -4 -7 -40 -7 -80 0 -85 -2 -84 115 -84 59 0 86 4 94
14 7 9 11 41 9 83 l-3 68 -101 3 c-55 1 -103 0 -107 -4z"/>
<path d="M5832 1538 l3 -83 100 0 100 0 3 83 3 82 -106 0 -106 0 3 -82z"/>
<path d="M6117 1614 c-12 -12 -8 -139 5 -152 18 -18 182 -16 197 2 7 9 11 41
9 83 l-3 68 -101 3 c-55 1 -103 0 -107 -4z"/>
<path d="M6407 1613 c-4 -3 -7 -39 -7 -79 0 -85 -1 -84 105 -84 107 0 105 -1
105 91 l0 79 -98 0 c-54 0 -102 -3 -105 -7z"/>
<path d="M6687 1614 c-12 -12 -8 -139 5 -152 14 -14 175 -17 196 -3 9 5 12 29
10 82 l-3 74 -101 3 c-55 1 -103 0 -107 -4z"/>
<path d="M6977 1614 c-4 -4 -7 -40 -7 -80 0 -85 -2 -84 115 -84 59 0 86 4 94
14 7 9 11 41 9 83 l-3 68 -101 3 c-55 1 -103 0 -107 -4z"/>
<path d="M3726 1555 c-9 -26 -7 -32 5 -12 6 10 9 21 6 23 -2 3 -7 -2 -11 -11z"/>
<path d="M133 1445 c0 -22 2 -30 4 -17 2 12 2 30 0 40 -3 9 -5 -1 -4 -23z"/>
<path d="M142 1375 c0 -16 2 -22 5 -12 2 9 2 23 0 30 -3 6 -5 -1 -5 -18z"/>
<path d="M3830 1311 c0 -92 -2 -91 105 -91 107 0 105 -1 105 91 l0 79 -105 0
-105 0 0 -79z"/>
<path d="M4407 1383 c-4 -3 -7 -39 -7 -79 0 -56 3 -73 16 -78 29 -11 179 -7
192 6 12 12 17 114 6 142 -5 13 -24 16 -103 16 -54 0 -101 -3 -104 -7z"/>
<path d="M4977 1384 c-4 -4 -7 -40 -7 -80 0 -85 -2 -84 115 -84 59 0 86 4 94
14 7 9 11 41 9 83 l-3 68 -101 3 c-55 1 -103 0 -107 -4z"/>
<path d="M5547 1384 c-4 -4 -7 -40 -7 -80 0 -85 -2 -84 115 -84 59 0 86 4 94
14 7 9 11 41 9 83 l-3 68 -101 3 c-55 1 -103 0 -107 -4z"/>
<path d="M5832 1308 l3 -83 100 0 100 0 3 83 3 82 -106 0 -106 0 3 -82z"/>
<path d="M6117 1384 c-12 -12 -8 -139 5 -152 18 -18 182 -16 197 2 7 9 11 41
9 83 l-3 68 -101 3 c-55 1 -103 0 -107 -4z"/>
<path d="M6407 1383 c-4 -3 -7 -39 -7 -79 0 -85 -1 -84 105 -84 107 0 105 -1
105 91 l0 79 -98 0 c-54 0 -102 -3 -105 -7z"/>
<path d="M6687 1384 c-12 -12 -8 -139 5 -152 14 -14 175 -17 196 -3 9 5 12 29
10 82 l-3 74 -101 3 c-55 1 -103 0 -107 -4z"/>
<path d="M7262 1308 l3 -83 80 -3 c128 -5 126 -6 123 86 l-3 77 -103 3 -103 3
3 -83z"/>
<path d="M152 1320 c0 -14 2 -19 5 -12 2 6 2 18 0 25 -3 6 -5 1 -5 -13z"/>
<path d="M162 1275 c0 -11 3 -29 8 -40 11 -25 11 1 0 35 -6 20 -8 21 -8 5z"/>
<path d="M4146 1175 c-12 -32 -6 -132 8 -144 9 -8 47 -11 107 -9 l94 3 0 80 0
80 -101 3 c-86 2 -103 0 -108 -13z"/>
<path d="M4627 1184 c-10 -10 -9 -136 1 -152 6 -9 35 -12 108 -10 l99 3 0 80
0 80 -101 3 c-55 1 -103 0 -107 -4z"/>
<path d="M3472 1155 c0 -16 2 -22 5 -12 2 9 2 23 0 30 -3 6 -5 -1 -5 -18z"/>
<path d="M4977 1154 c-4 -4 -7 -40 -7 -80 0 -85 -2 -84 115 -84 59 0 86 4 94
14 7 9 11 41 9 83 l-3 68 -101 3 c-55 1 -103 0 -107 -4z"/>
<path d="M6117 1154 c-12 -12 -8 -139 5 -152 18 -18 182 -16 197 2 7 9 11 41
9 83 l-3 68 -101 3 c-55 1 -103 0 -107 -4z"/>
<path d="M6407 1153 c-4 -3 -7 -39 -7 -79 0 -87 0 -87 125 -82 l80 3 3 83 3
82 -99 0 c-54 0 -102 -3 -105 -7z"/>
<path d="M6942 1068 l3 -83 100 0 100 0 3 83 3 82 -106 0 -106 0 3 -82z"/>
<path d="M3462 1100 c0 -14 2 -19 5 -12 2 6 2 18 0 25 -3 6 -5 1 -5 -13z"/>
<path d="M3451 1054 c0 -11 3 -14 6 -6 3 7 2 16 -1 19 -3 4 -6 -2 -5 -13z"/>
<path d="M230 1055 c0 -5 5 -17 10 -25 5 -8 10 -10 10 -5 0 6 -5 17 -10 25 -5
8 -10 11 -10 5z"/>
<path d="M3441 1014 c0 -11 3 -14 6 -6 3 7 2 16 -1 19 -3 4 -6 -2 -5 -13z"/>
<path d="M3417 938 c-9 -29 -15 -54 -13 -56 2 -2 12 20 21 48 9 28 15 53 13
55 -2 3 -12 -19 -21 -47z"/>
<path d="M270 966 c0 -11 40 -86 45 -86 3 0 -4 19 -16 43 -23 45 -29 54 -29
43z"/>
<path d="M6647 934 c-4 -4 -7 -43 -7 -86 l0 -78 105 0 106 0 -3 83 -3 82 -95
3 c-53 1 -99 0 -103 -4z"/>
<path d="M3382 845 c-17 -37 -14 -45 4 -12 9 16 14 31 11 33 -2 2 -9 -7 -15
-21z"/>
<path d="M4627 864 c-14 -14 -8 -141 7 -153 9 -8 47 -11 107 -9 l94 3 0 80 0
80 -101 3 c-55 1 -103 0 -107 -4z"/>
<path d="M6974 837 c-3 -8 -4 -45 -2 -83 l3 -69 100 0 100 0 0 80 0 80 -98 3
c-76 2 -99 0 -103 -11z"/>
<path d="M3352 714 c-19 -20 -38 -32 -45 -28 -7 4 -9 4 -5 0 4 -4 -9 -22 -28
-38 -19 -17 -33 -33 -30 -35 6 -6 134 107 141 124 6 18 5 17 -33 -23z"/>
<path d="M3320 720 c-6 -11 -8 -20 -6 -20 3 0 10 9 16 20 6 11 8 20 6 20 -3 0
-10 -9 -16 -20z"/>
<path d="M6734 647 c-3 -8 -4 -45 -2 -83 l3 -69 103 -3 103 -3 -3 83 -3 83
-98 3 c-76 2 -99 0 -103 -11z"/>
<path d="M3184 528 l-19 -23 23 19 c12 11 22 21 22 23 0 8 -8 2 -26 -19z"/>
<path d="M3139 483 c-13 -16 -12 -17 4 -4 16 13 21 21 13 21 -2 0 -10 -8 -17
-17z"/>
<path d="M702 434 c10 -10 20 -16 22 -13 3 3 -5 11 -17 18 -21 13 -21 12 -5
-5z"/>
<path d="M1230 146 c0 -3 9 -10 20 -16 11 -6 20 -8 20 -6 0 3 -9 10 -20 16
-11 6 -20 8 -20 6z"/>
<path d="M2470 100 c-9 -6 -10 -10 -3 -10 6 0 15 5 18 10 8 12 4 12 -15 0z"/>
<path d="M2168 23 c7 -3 16 -2 19 1 4 3 -2 6 -13 5 -11 0 -14 -3 -6 -6z"/>
<path d="M2088 13 c6 -2 18 -2 25 0 6 3 1 5 -13 5 -14 0 -19 -2 -12 -5z"/>
<path d="M1998 3 c7 -3 16 -2 19 1 4 3 -2 6 -13 5 -11 0 -14 -3 -6 -6z"/>
</g>
</svg>
