<svg width="38" height="38" viewBox="0 0 38 38" fill="none" xmlns="http://www.w3.org/2000/svg">
<path d="M9.65648 12.6332C12.438 14.9888 17.3187 19.1331 18.7532 20.4253C18.9458 20.5997 19.1523 20.6884 19.3667 20.6884C19.5807 20.6884 19.7869 20.6005 19.9791 20.427C21.4148 19.1335 26.2955 14.9888 29.077 12.6332C29.2502 12.4868 29.2766 12.2295 29.1364 12.0505C28.8123 11.637 28.3291 11.3999 27.8112 11.3999H10.9223C10.4044 11.3999 9.92117 11.637 9.59711 12.0506C9.4569 12.2295 9.4833 12.4868 9.65648 12.6332Z" fill="white"/>
<path d="M29.2552 13.91C29.1055 13.8403 28.9294 13.8646 28.8049 13.971C25.7202 16.586 21.7834 19.9378 20.5447 21.0539C19.8495 21.6815 18.8847 21.6815 18.1879 21.0531C16.8676 19.8635 12.4466 16.1052 9.92856 13.971C9.8032 13.8646 9.62674 13.8411 9.4783 13.9099C9.32907 13.9792 9.2334 14.1285 9.2334 14.293V24.9112C9.2334 25.8427 9.99083 26.6001 10.9223 26.6001H27.8112C28.7426 26.6001 29.5001 25.8427 29.5001 24.9112V14.293C29.5001 14.1285 29.4044 13.9788 29.2552 13.91Z" fill="white"/>
<g opacity="0.9">
<path fill-rule="evenodd" clip-rule="evenodd" d="M31.3935 6.61743C28.216 3.45075 23.8396 1.48314 19 1.48314C14.1711 1.48314 9.78427 3.45075 6.61759 6.61743C3.45092 9.7841 1.48369 14.1606 1.48369 19.0002C1.48369 23.8398 3.45092 28.2159 6.61759 31.3933C9.78427 34.56 14.1711 36.5168 19 36.5168C23.8396 36.5168 28.216 34.56 31.3935 31.3933C34.5601 28.2159 36.5166 23.8398 36.5166 19.0002C36.5166 14.1606 34.5601 9.7841 31.3935 6.61743ZM32.4349 5.56556C35.8752 9.00581 38.0001 13.7503 38.0001 19C38.0001 24.2494 35.8752 28.9943 32.4349 32.4345C29.005 35.8748 24.2498 37.9997 19 37.9997C13.761 37.9997 9.0062 35.8748 5.56556 32.4345C2.12531 28.9943 0 24.2494 0 19C0 13.7503 2.12531 9.00581 5.56556 5.56556C9.0062 2.12493 13.761 0 19 0C24.2498 0 29.005 2.12493 32.4349 5.56556Z" fill="white"/>
</g>
</svg>
