<svg width="58" height="47" viewBox="0 0 58 47" fill="none" xmlns="http://www.w3.org/2000/svg">
<path d="M20.6221 24.442C20.6221 21.3243 21.9969 18.2957 24.452 16.0688C26.5142 14.1982 29.1657 13.0402 31.9154 12.6839V6.53765L18.167 0.480469V40.3866L31.9154 46.4438V36.1109C29.1657 35.7546 26.5142 34.6857 24.452 32.726C21.8987 30.5882 20.6221 27.5596 20.6221 24.442Z" fill="white"/>
<path d="M51.0648 0.213238C50.5738 -0.0539909 49.9846 -0.0539913 49.4936 0.124161L35.2542 6.53764V12.6839C38.1021 13.0402 40.8517 14.1982 42.914 16.0688C45.3691 18.2957 46.7439 21.2352 46.7439 24.442C46.7439 27.1142 45.7619 29.6084 43.9942 31.6571L52.1451 39.0504L51.8504 1.4603C51.8504 0.925847 51.5558 0.480466 51.0648 0.213238Z" fill="white"/>
<path d="M14.8286 0.569092L0.883825 7.60611C0.392812 7.87334 0 8.4078 0 8.94225V45.4635C0 45.9979 0.294609 46.5324 0.785622 46.7996C1.27664 47.0669 1.96405 47.0669 2.45507 46.7996L14.7304 40.5643V0.569092H14.8286Z" fill="white"/>
<path d="M35.2542 36.1111V46.4439L49.7882 41.0994L41.6374 33.7061C39.6733 35.1313 37.5129 35.933 35.2542 36.1111Z" fill="white"/>
<path d="M33.683 15.624C31.1298 15.624 28.6747 16.5148 26.8088 18.2072C24.943 19.8997 23.961 22.1266 23.961 24.4426C23.961 26.7585 24.943 28.9855 26.8088 30.6779C30.6387 34.1519 36.8255 34.1519 40.5572 30.6779C42.4231 28.9855 43.4051 26.7585 43.4051 24.4426C43.4051 22.1266 42.4231 19.8997 40.5572 18.2072C38.6914 16.5148 36.2363 15.624 33.683 15.624Z" fill="white"/>
<path d="M52.146 39.2282C52.146 39.8517 51.7532 40.3862 51.164 40.6534L49.8873 41.0988L55.3867 46.087L57.7435 43.9492L52.2442 38.9609L52.146 39.2282Z" fill="white"/>
</svg>
