<svg width="36" height="31" viewBox="0 0 36 31" fill="none" xmlns="http://www.w3.org/2000/svg">
<path d="M23.294 23.151L23.296 23.1531L23.5112 23.3872C23.5113 23.3873 23.5114 23.3874 23.5115 23.3874C23.6276 23.5133 23.7668 23.5665 23.893 23.5665C23.8986 23.5665 23.9054 23.5663 23.9144 23.5659L23.294 23.151ZM23.294 23.151C23.0605 22.8984 23.0229 22.4621 23.232 22.1566L23.2321 22.1565C24.5632 20.2117 25.2615 17.9114 25.2615 15.5105C25.2615 12.9304 24.4687 10.4933 22.9578 8.47644L22.9574 8.47579C22.7309 8.174 22.7586 7.71963 23.0012 7.45685L23.0021 7.45593L23.2171 7.22247C23.2173 7.2223 23.2174 7.22213 23.2176 7.22195C23.3496 7.07916 23.4868 7.03485 23.6137 7.04305L23.6137 7.0431L23.624 7.04367C23.7591 7.05103 23.9097 7.12101 24.0255 7.27439C25.7881 9.61175 26.7253 12.4551 26.7253 15.511C26.7253 18.3549 25.8965 21.0494 24.3369 23.3105C24.2215 23.4771 24.0675 23.5539 23.9313 23.5648L23.294 23.151ZM1.61568 20.7481H6.32009H1.61568ZM1.61568 20.7481C0.72352 20.7489 0 19.9645 0 18.9977V12.0222C0 11.055 0.72352 10.2709 1.61568 10.2709H6.32048L1.61568 20.7481ZM16.4026 27.9942L16.3995 27.9958C16.3284 28.0322 16.2556 28.0486 16.184 28.0486C16.0747 28.0486 15.9537 28.0087 15.8443 27.9103L15.844 27.9101L7.01111 19.9785L6.71631 19.7138H6.32009H1.61568H1.61472C1.3717 19.714 1.03426 19.4736 1.03426 18.9977V12.0222C1.03426 11.5462 1.37154 11.3052 1.61568 11.3052H6.32048H6.71669L7.01149 11.0405L15.8444 3.10894L15.8445 3.10886C16.0175 2.95344 16.2261 2.93503 16.4001 3.02415L16.4027 3.02551C16.5942 3.12287 16.7662 3.36589 16.7662 3.68784L16.7658 27.332C16.7658 27.6546 16.594 27.8969 16.4026 27.9942ZM28.8596 29.1841L28.8594 29.1838C28.6134 28.9175 28.5894 28.4555 28.8226 28.1546C31.5738 24.6089 33.081 20.1191 33.081 15.5105C33.081 10.7183 31.4674 6.09252 28.5214 2.48805C28.2786 2.1907 28.2954 1.71937 28.5461 1.44615C28.5462 1.44597 28.5464 1.44578 28.5466 1.4456L28.7577 1.21637L28.7588 1.21521C28.8871 1.07548 29.0119 1.02976 29.1526 1.03462L29.1564 1.03474C29.2862 1.03872 29.4325 1.10136 29.5494 1.24393C32.7642 5.16614 34.5444 10.2323 34.5444 15.5105V15.5107C34.5452 20.5879 32.8807 25.5105 29.8738 29.3706C29.7579 29.519 29.6114 29.5858 29.4787 29.5931L29.46 29.5937C29.455 29.5939 29.4536 29.5938 29.4544 29.5938C29.3276 29.5938 29.1887 29.5407 29.0718 29.4141L28.3117 30.1155L29.0718 29.4141L28.8596 29.1841Z" stroke="white" stroke-width="2.06853"/>
<path d="M34 29L2 2" stroke="white" stroke-width="3" stroke-linecap="round"/>
</svg>
