<svg width="20" height="20" viewBox="0 0 20 20" fill="none" xmlns="http://www.w3.org/2000/svg">
<circle cx="10" cy="10" r="9.5" stroke="white"/>
<path d="M16.6818 9.30303C16.5 8.90909 16.1667 8.57576 15.7576 8.28788C15.1364 7.84849 14.2879 7.5 13.2879 7.25758C12.8636 7.15152 12.3939 7.07576 11.9242 7C11.7121 6.5 11.4848 6.04545 11.2273 5.65152C10.9091 5.16667 10.5758 4.75758 10.2121 4.4697C10.0303 4.31818 9.83333 4.21212 9.63636 4.12121C9.43939 4.04545 9.22727 4 9.01515 4C8.92424 4 8.83333 4.01515 8.74243 4.0303C8.42424 4.09091 8.13636 4.27273 7.90909 4.5C7.56061 4.86364 7.33333 5.36364 7.16667 5.9697C7 6.57576 6.92424 7.28788 6.92424 8.06061C6.92424 8.83333 7 9.68182 7.18182 10.5455C7.30303 11.1667 7.4697 11.7576 7.65152 12.303C6.78788 12.1667 6.01515 11.9545 5.39394 11.6818C4.83333 11.4394 4.37879 11.1515 4.09091 10.8636C3.93939 10.7121 3.83333 10.5758 3.77273 10.4242C3.71212 10.2879 3.66667 10.1515 3.66667 10C3.66667 9.86364 3.69697 9.72727 3.77273 9.57576C3.89394 9.33333 4.12121 9.06061 4.48485 8.81818C5 8.45455 5.75758 8.13636 6.66667 7.90909C6.66667 7.66667 6.68182 7.42424 6.69697 7.19697C6.12121 7.33333 5.60606 7.5 5.13636 7.69697C4.51515 7.9697 4 8.28788 3.62121 8.66667C3.43939 8.86364 3.27273 9.06061 3.16667 9.28788C3.06061 9.51515 3 9.75758 3 10C3 10.2424 3.06061 10.4848 3.16667 10.7121C3.34848 11.1061 3.68182 11.4394 4.10606 11.7273C4.72727 12.1667 5.57576 12.5152 6.57576 12.7576C7 12.8636 7.4697 12.9545 7.93939 13.0152C8.15152 13.5152 8.37879 13.9697 8.63636 14.3636C8.95455 14.8485 9.28788 15.2576 9.65152 15.5455C9.83333 15.697 10.0303 15.803 10.2273 15.8939C10.4242 15.9697 10.6364 16.0152 10.8485 16.0152C10.9394 16.0152 11.0303 16 11.1212 15.9849C11.4394 15.9242 11.7273 15.7424 11.9545 15.5152C12.303 15.1515 12.5303 14.6515 12.697 14.0455C12.7727 13.7727 12.8333 13.4697 12.8636 13.1515C12.7879 13.1667 12.697 13.1818 12.6212 13.197C12.4697 13.2273 12.3182 13.2424 12.1667 13.2727C12.1061 13.6818 12 14.0606 11.8788 14.3636C11.7576 14.6667 11.6212 14.8939 11.4697 15.0455C11.3788 15.1364 11.2879 15.197 11.197 15.2424L10.8333 13.3939C10.697 13.3939 10.5606 13.4091 10.4242 13.4091L10.803 15.3182C10.7121 15.3182 10.6061 15.2879 10.5 15.2424C10.2727 15.1515 10.0152 14.9697 9.77273 14.697C9.40909 14.3182 9.06061 13.7727 8.74243 13.0909C9.13636 13.1212 9.54546 13.1364 9.95455 13.1364C11.8182 13.1364 13.5 12.8182 14.7424 12.2879C15.3636 12.0152 15.8788 11.697 16.2576 11.3182C16.4394 11.1212 16.6061 10.9242 16.7121 10.697C16.8182 10.4697 16.8788 10.2273 16.8788 9.98485C16.8636 9.77273 16.803 9.5303 16.6818 9.30303ZM16.0758 10.4394C15.9545 10.6818 15.7273 10.9545 15.3636 11.197C14.8333 11.5758 14.0606 11.8939 13.1212 12.1212C12.1818 12.3485 11.0909 12.4849 9.92424 12.4849C9.40909 12.4849 8.89394 12.4545 8.40909 12.4091C8.18182 11.803 7.98485 11.1364 7.84849 10.4242C7.68182 9.59091 7.60606 8.80303 7.60606 8.07576C7.60606 7.10606 7.74243 6.25758 7.98485 5.66667C8.10606 5.36364 8.24243 5.13636 8.39394 4.98485C8.48485 4.89394 8.57576 4.81818 8.66667 4.77273L9.71212 10.0606L10.1364 12.2121C10.2727 12.2121 10.4091 12.2121 10.5455 12.197L10.1061 9.9697L9.06061 4.68182C9.15152 4.68182 9.25758 4.71212 9.34849 4.75758C9.57576 4.84848 9.83333 5.0303 10.0758 5.30303C10.4394 5.68182 10.7879 6.22727 11.1061 6.90909C10.7121 6.87879 10.303 6.86364 9.89394 6.86364C9.84849 6.86364 9.80303 6.86364 9.75758 6.86364L9.89394 7.54546C10.4091 7.54546 10.9242 7.57576 11.4091 7.62121C11.6364 8.22727 11.8333 8.89394 11.9697 9.60606C12.1364 10.4394 12.2121 11.2273 12.2121 11.9545C12.2121 11.9849 12.2121 12 12.2121 12.0152C12.3788 11.9848 12.5303 11.9545 12.6818 11.9242C12.7576 11.9091 12.8182 11.8939 12.8939 11.8788C12.8939 11.1212 12.803 10.303 12.6364 9.4697C12.5152 8.84849 12.3485 8.25758 12.1667 7.71212C13.0303 7.84849 13.7879 8.06061 14.4242 8.33333C14.9848 8.57576 15.4394 8.86364 15.7273 9.15152C15.8788 9.30303 15.9849 9.43939 16.0455 9.59091C16.1061 9.72727 16.1515 9.86364 16.1515 10.0152C16.1667 10.1515 16.1364 10.2879 16.0758 10.4394Z" fill="white"/>
<line x1="16.0415" y1="4.70711" x2="4.70702" y2="16.0416" stroke="white" stroke-linecap="round"/>
</svg>
