<svg width="37" height="37" viewBox="0 0 37 37" fill="none" xmlns="http://www.w3.org/2000/svg">
<path d="M18.5555 0.000258931C15.6605 -0.0151552 12.7638 0.657622 10.1154 2.0205L11.2774 4.27841C15.5111 2.0997 20.4788 1.96535 24.7985 3.87173L23.4781 5.46151L31.5537 7.71678L27.8539 0.19304L26.4728 1.85677C23.9764 0.635763 21.2669 0.0146954 18.5555 0.000258931Z" fill="white"/>
<path d="M34.8969 10.1172L32.639 11.2792C34.8177 15.5128 34.9521 20.4806 33.0457 24.8002L31.4559 23.4798L29.2006 31.5555L36.7244 27.8557L35.0607 26.4745C37.5854 21.3128 37.5362 15.2459 34.8969 10.1172Z" fill="white"/>
<path d="M5.36214 29.2021L9.06196 36.7259L10.4431 35.0622C15.6049 37.5869 21.6718 37.5377 26.8005 34.8984L25.6385 32.6405C21.4048 34.8192 16.437 34.9536 12.1174 33.0472L13.4378 31.4574L5.36214 29.2021Z" fill="white"/>
<path d="M7.71548 5.36279L0.191733 9.06261L1.85546 10.4438C-0.669241 15.6055 -0.620117 21.6724 2.01919 26.8011L4.27711 25.6391C2.09839 21.4055 1.96404 16.4377 3.87042 12.1181L5.4602 13.4385L7.71548 5.36279Z" fill="white"/>
<path d="M35 35L2 2" stroke="white" stroke-width="3" stroke-linecap="round"/>
</svg>
