<?xml version="1.0" standalone="no"?>
<!DOCTYPE svg PUBLIC "-//W3C//DTD SVG 20010904//EN"
 "http://www.w3.org/TR/2001/REC-SVG-20010904/DTD/svg10.dtd">
<svg version="1.0" xmlns="http://www.w3.org/2000/svg"
 width="512.000000pt" height="512.000000pt" viewBox="0 0 512.000000 512.000000"
 preserveAspectRatio="xMidYMid meet">

<g transform="translate(0.000000,512.000000) scale(0.100000,-0.100000)"
fill="#000000" stroke="none">
<path d="M2380 5109 c-1036 -74 -1926 -768 -2250 -1757 -139 -427 -162 -909
-64 -1352 158 -707 622 -1325 1263 -1680 567 -314 1257 -398 1888 -230 882
235 1578 931 1813 1813 234 879 -20 1822 -664 2463 -450 448 -1006 699 -1644
743 -167 12 -173 12 -342 0z m-730 -935 c44 -20 97 -67 277 -247 254 -254 276
-286 276 -407 0 -106 -31 -161 -167 -299 -145 -148 -157 -182 -109 -336 108
-348 640 -871 975 -961 63 -16 146 -18 184 -4 15 6 82 64 148 129 140 137 178
157 291 155 117 -1 140 -17 396 -273 147 -146 235 -242 249 -271 32 -62 38
-169 15 -241 -16 -48 -39 -75 -213 -251 -210 -213 -235 -230 -355 -249 -77
-13 -203 2 -324 37 -550 159 -1343 789 -1859 1478 -203 270 -377 582 -452 809
-54 163 -65 227 -60 344 6 147 18 166 216 366 92 93 186 182 209 198 89 62
198 70 303 23z"/>
</g>
</svg>
