<svg width="37" height="37" viewBox="0 0 37 37" fill="none" xmlns="http://www.w3.org/2000/svg">
<path d="M18.5555 0.0344386C15.6605 0.0190245 12.7638 0.691802 10.1154 2.05468L11.2774 4.31259C15.5111 2.13388 20.4788 1.99953 24.7985 3.9059L23.4781 5.49569L31.5537 7.75096L27.8539 0.22722L26.4728 1.89095C23.9764 0.669942 21.2669 0.0488751 18.5555 0.0344386Z" fill="white"/>
<path d="M34.8969 10.1514L32.639 11.3133C34.8177 15.547 34.9521 20.5148 33.0457 24.8344L31.4559 23.514L29.2006 31.5897L36.7244 27.8899L35.0607 26.5087C37.5854 21.3469 37.5362 15.2801 34.8969 10.1514Z" fill="white"/>
<path d="M5.36215 29.2363L9.06196 36.7601L10.4431 35.0963C15.6049 37.621 21.6718 37.5719 26.8005 34.9326L25.6385 32.6747C21.4048 34.8534 16.437 34.9878 12.1174 33.0814L13.4378 31.4916L5.36215 29.2363Z" fill="white"/>
<path d="M7.71548 5.39697L0.191733 9.09678L1.85546 10.4779C-0.669241 15.6397 -0.620117 21.7066 2.01919 26.8353L4.27711 25.6733C2.09839 21.4396 1.96404 16.4719 3.87042 12.1522L5.4602 13.4727L7.71548 5.39697Z" fill="white"/>
</svg>
