<svg width="34" height="34" viewBox="0 0 34 34" fill="none" xmlns="http://www.w3.org/2000/svg">
<path d="M14.54 29.0785C17.766 29.0778 20.8991 27.9979 23.4403 26.0107L31.43 34L34 31.4302L26.0103 23.4409C27.9986 20.8995 29.0792 17.7659 29.08 14.5392C29.08 6.52266 22.557 0 14.54 0C6.52301 0 0 6.52266 0 14.5392C0 22.5558 6.52301 29.0785 14.54 29.0785ZM14.54 3.63481C20.5541 3.63481 25.445 8.52544 25.445 14.5392C25.445 20.553 20.5541 25.4437 14.54 25.4437C8.5259 25.4437 3.635 20.553 3.635 14.5392C3.635 8.52544 8.5259 3.63481 14.54 3.63481Z" fill="white"/>
</svg>
