<svg width="34" height="35" viewBox="0 0 34 35" fill="none" xmlns="http://www.w3.org/2000/svg">
<path d="M18.4903 34.0525H16.4132C14.7332 34.0525 13.3664 32.6857 13.3664 31.0058V30.303C12.6522 30.0749 11.9582 29.7868 11.2916 29.4418L10.7936 29.9398C9.58744 31.1474 7.65537 31.112 6.48426 29.9394L5.01619 28.4714C3.84301 27.2995 3.80926 25.368 5.01657 24.162L5.51418 23.6644C5.16919 22.9978 4.88121 22.304 4.65297 21.5896H3.95031C2.27041 21.5896 0.903564 20.2228 0.903564 18.5429V16.4657C0.903564 14.7857 2.27041 13.4189 3.95038 13.4189H4.65303C4.88128 12.7046 5.16926 12.0108 5.51425 11.3441L5.01625 10.8462C3.80965 9.6409 3.84294 7.70928 5.01664 6.53688L6.48484 5.06874C7.65867 3.8933 9.59028 3.86395 10.7941 5.06913L11.2916 5.56667C11.9583 5.22175 12.6522 4.9337 13.3664 4.70546V4.0028C13.3664 2.32283 14.7332 0.956055 16.4133 0.956055H18.4904C20.1703 0.956055 21.5371 2.32283 21.5371 4.0028V4.70552C22.2514 4.9337 22.9453 5.22175 23.6119 5.56674L24.1099 5.06874C25.3161 3.86111 27.2481 3.89653 28.4193 5.06919L29.8873 6.5372C31.0605 7.70909 31.0942 9.64051 29.8869 10.8465L29.3893 11.3441C29.7343 12.0108 30.0223 12.7046 30.2505 13.4189H30.9532C32.6332 13.4189 34 14.7857 34 16.4657V18.5429C34 20.2228 32.6332 21.5896 30.9532 21.5896H30.2505C30.0223 22.3039 29.7343 22.9978 29.3893 23.6644L29.8873 24.1624C31.0939 25.3677 31.0606 27.2993 29.8869 28.4717L28.4187 29.9399C27.2449 31.1153 25.3133 31.1447 24.1095 29.9395L23.6119 29.4419C22.9453 29.7869 22.2514 30.0749 21.5371 30.3032V31.0059C21.5371 32.6857 20.1704 34.0525 18.4903 34.0525ZM11.6158 27.4054C12.5419 27.9531 13.5387 28.3669 14.5783 28.6352C15.0065 28.7457 15.3057 29.1319 15.3057 29.5741V31.0058C15.3057 31.6164 15.8026 32.1133 16.4133 32.1133H18.4904C19.101 32.1133 19.5979 31.6164 19.5979 31.0058V29.5741C19.5979 29.1319 19.8971 28.7457 20.3253 28.6352C21.365 28.3669 22.3618 27.9531 23.2879 27.4054C23.6689 27.1801 24.1541 27.2414 24.4671 27.5544L25.4812 28.5686C25.9185 29.0063 26.6206 28.9962 27.0471 28.569L28.5162 27.1C28.9417 26.675 28.9559 25.9728 28.5166 25.534L27.5021 24.5195C27.1891 24.2065 27.1278 23.7213 27.3531 23.3403C27.9008 22.4143 28.3145 21.4175 28.5828 20.3777C28.6933 19.9495 29.0795 19.6504 29.5216 19.6504H30.9533C31.5639 19.6504 32.0608 19.1536 32.0608 18.5429V16.4657C32.0608 15.8551 31.5639 15.3582 30.9533 15.3582H29.5216C29.0794 15.3582 28.6933 15.0591 28.5828 14.631C28.3145 13.5912 27.9007 12.5944 27.3531 11.6684C27.1278 11.2874 27.1891 10.8022 27.5021 10.4892L28.5162 9.47503C28.9546 9.03715 28.9432 8.33514 28.5166 7.90909L27.0476 6.44011C26.6218 6.01373 25.9196 6.00126 25.4817 6.43972L24.4672 7.45427C24.1542 7.76733 23.6689 7.82861 23.2879 7.60327C22.3618 7.05556 21.3651 6.64179 20.3254 6.37346C19.8972 6.26299 19.598 5.87682 19.598 5.43461V4.0028C19.598 3.39213 19.1011 2.8953 18.4904 2.8953H16.4133C15.8027 2.8953 15.3058 3.39213 15.3058 4.0028V5.43448C15.3058 5.87669 15.0066 6.26286 14.5784 6.37334C13.5387 6.64166 12.5419 7.05543 11.6158 7.60314C11.2347 7.82842 10.7496 7.76714 10.4366 7.45414L9.42247 6.43998C8.98524 6.00223 8.28304 6.01238 7.8566 6.43953L6.38749 7.90857C5.96202 8.33352 5.9478 9.03572 6.3871 9.47451L7.40165 10.4891C7.71465 10.8021 7.77593 11.2873 7.55065 11.6682C7.00294 12.5943 6.58924 13.5911 6.32091 14.6308C6.21037 15.059 5.8242 15.3581 5.38206 15.3581H3.95038C3.33971 15.3582 2.84281 15.855 2.84281 16.4657V18.5429C2.84281 19.1535 3.33971 19.6504 3.95038 19.6504H5.38199C5.8242 19.6504 6.21031 19.9495 6.32085 20.3777C6.58917 21.4174 7.00294 22.4142 7.55059 23.3402C7.77586 23.7212 7.71458 24.2064 7.40159 24.5194L6.38743 25.5336C5.94903 25.9715 5.96047 26.6735 6.38704 27.0995L7.85602 28.5685C8.28181 28.9949 8.98408 29.0074 9.42196 28.5689L10.4364 27.5543C10.6671 27.3238 11.1469 27.1281 11.6158 27.4054Z" fill="white"/>
<path d="M17.4537 24.6559C13.5109 24.6559 10.3032 21.4482 10.3032 17.5054C10.3032 13.5627 13.5109 10.355 17.4537 10.355C21.3965 10.355 24.6042 13.5627 24.6042 17.5054C24.6042 21.4482 21.3965 24.6559 17.4537 24.6559ZM17.4537 12.2806C14.5727 12.2806 12.2289 14.6245 12.2289 17.5054C12.2289 20.3864 14.5727 22.7303 17.4537 22.7303C20.3347 22.7303 22.6786 20.3864 22.6786 17.5054C22.6786 14.6245 20.3348 12.2806 17.4537 12.2806Z" fill="white"/>
</svg>
