<svg width="36" height="32" viewBox="0 0 36 32" fill="none" xmlns="http://www.w3.org/2000/svg">
<path d="M23.4869 23.6334L23.4889 23.6355L23.7041 23.8696C23.7042 23.8697 23.7043 23.8698 23.7044 23.8699C23.8205 23.9957 23.9597 24.0489 24.0859 24.0489C24.0915 24.0489 24.0983 24.0487 24.1073 24.0483L23.4869 23.6334ZM23.4869 23.6334C23.2534 23.3808 23.2157 22.9446 23.4249 22.6391L23.425 22.6389C24.7561 20.6941 25.4543 18.3938 25.4543 15.993C25.4543 13.4129 24.6616 10.9757 23.1507 8.95886L23.1502 8.95821C22.9238 8.65642 22.9514 8.20205 23.1941 7.93927L23.1949 7.93836L23.41 7.70489C23.4102 7.70472 23.4103 7.70455 23.4105 7.70437C23.5425 7.56159 23.6796 7.51727 23.8065 7.52547L23.8065 7.52552L23.8169 7.52609C23.952 7.53346 24.1026 7.60343 24.2184 7.75681C25.981 10.0942 26.9181 12.9376 26.9181 15.9934C26.9181 18.8373 26.0894 21.5318 24.5298 23.7929C24.4144 23.9595 24.2603 24.0363 24.1241 24.0473L23.4869 23.6334ZM1.80855 21.2305H6.51296H1.80855ZM1.80855 21.2305C0.916391 21.2313 0.192871 20.4469 0.192871 19.4801V12.5046C0.192871 11.5374 0.916391 10.7533 1.80855 10.7533H6.51335L1.80855 21.2305ZM16.5955 28.4766L16.5923 28.4782C16.5213 28.5146 16.4485 28.531 16.3769 28.531C16.2676 28.531 16.1466 28.4911 16.0372 28.3927L16.0369 28.3925L7.20398 20.461L6.90918 20.1962H6.51296H1.80855H1.80759C1.56457 20.1965 1.22714 19.9561 1.22714 19.4801V12.5046C1.22714 12.0286 1.56441 11.7876 1.80855 11.7876H6.51335H6.90956L7.20436 11.5229L16.0373 3.59136L16.0374 3.59128C16.2104 3.43586 16.4189 3.41745 16.5929 3.50657L16.5956 3.50793C16.7871 3.6053 16.959 3.84831 16.959 4.17026L16.9587 27.8144C16.9587 28.137 16.7869 28.3793 16.5955 28.4766ZM29.0525 29.6665L29.0522 29.6663C28.8063 29.3999 28.7823 28.9379 29.0154 28.637C31.7666 25.0913 33.2739 20.6015 33.2739 15.993C33.2739 11.2007 31.6602 6.57494 28.7142 2.97047C28.4715 2.67313 28.4883 2.20179 28.7389 1.92857C28.7391 1.92839 28.7393 1.9282 28.7394 1.92802L28.9506 1.69879L28.9517 1.69763C29.08 1.5579 29.2048 1.51218 29.3454 1.51704L29.3493 1.51716C29.479 1.52115 29.6254 1.58379 29.7423 1.72635C32.957 5.64856 34.7373 10.7147 34.7373 15.993V15.9931C34.738 21.0703 33.0736 25.9929 30.0667 29.8531C29.9508 30.0014 29.8043 30.0683 29.6715 30.0755L29.6529 30.0761C29.6479 30.0763 29.6465 30.0763 29.6473 30.0763C29.5205 30.0763 29.3815 30.0231 29.2647 29.8965L28.5046 30.5979L29.2647 29.8965L29.0525 29.6665Z" stroke="white" stroke-width="2.06853"/>
</svg>
