<svg width="39" height="25" viewBox="0 0 39 25" fill="none" xmlns="http://www.w3.org/2000/svg">
<path d="M33.7768 4.91739V5.96203H34.8214H37.6071C37.7312 5.96203 37.7837 6.00082 37.8209 6.0446C37.871 6.10359 37.9554 6.25611 37.9554 6.55652V18.0304C37.9554 18.3308 37.871 18.4834 37.8209 18.5424C37.7837 18.5861 37.7312 18.6249 37.6071 18.6249H34.8214H33.7768V19.6696C33.7768 22.0451 32.2808 23.5423 30.6429 23.5423H24.9321C24.1745 23.5423 23.4753 23.2263 22.8032 22.4353L21.1318 20.4683C20.6821 19.9392 20.0554 19.6084 19.3607 19.6084C18.666 19.6084 18.0393 19.9392 17.5897 20.4683L15.9182 22.4353L15.8884 22.4704L15.8617 22.508C15.3825 23.1848 14.6035 23.5423 13.7893 23.5423H8.35714C6.71923 23.5423 5.22321 22.0451 5.22321 19.6696V18.6249H4.17857H1.39286C1.26883 18.6249 1.21629 18.5861 1.17909 18.5424C1.12896 18.4834 1.04464 18.3308 1.04464 18.0304V6.55652C1.04464 6.25611 1.12896 6.10359 1.17909 6.0446C1.21629 6.00082 1.26883 5.96203 1.39286 5.96203H4.17857H5.22321V4.91739C5.22321 2.54187 6.71923 1.04464 8.35714 1.04464H30.6429C32.2808 1.04464 33.7768 2.54187 33.7768 4.91739ZM12.5357 10.8794H26.4643C27.176 10.8794 27.8199 10.5904 28.2702 10.0605C28.7075 9.54576 28.9018 8.87872 28.9018 8.19565C28.9018 7.51258 28.7075 6.84554 28.2702 6.33083C27.8199 5.80092 27.176 5.51188 26.4643 5.51188H12.5357C11.824 5.51188 11.1801 5.80092 10.7298 6.33083C10.2925 6.84554 10.0982 7.51258 10.0982 8.19565C10.0982 8.87872 10.2925 9.54576 10.7298 10.0605C11.1801 10.5904 11.824 10.8794 12.5357 10.8794Z" stroke="white" stroke-width="2.08929"/>
</svg>
