<svg width="38" height="38" viewBox="0 0 38 38" fill="none" xmlns="http://www.w3.org/2000/svg">
<g opacity="0.9">
<path fill-rule="evenodd" clip-rule="evenodd" d="M31.3935 6.61743C28.2161 3.45075 23.8396 1.48314 19 1.48314C14.1712 1.48314 9.78434 3.45075 6.61766 6.61743C3.45099 9.7841 1.48376 14.1606 1.48376 19.0002C1.48376 23.8398 3.45099 28.2159 6.61766 31.3933C9.78434 34.56 14.1712 36.5168 19 36.5168C23.8396 36.5168 28.2161 34.56 31.3935 31.3933C34.5602 28.2159 36.5167 23.8398 36.5167 19.0002C36.5167 14.1606 34.5602 9.7841 31.3935 6.61743ZM32.4349 5.56556C35.8752 9.00581 38.0001 13.7503 38.0001 19C38.0001 24.2494 35.8752 28.9943 32.4349 32.4345C29.005 35.8748 24.2498 37.9997 19 37.9997C13.761 37.9997 9.0062 35.8748 5.56556 32.4345C2.12531 28.9943 0 24.2494 0 19C0 13.7503 2.12531 9.00581 5.56556 5.56556C9.0062 2.12493 13.761 0 19 0C24.2498 0 29.005 2.12493 32.4349 5.56556Z" fill="white"/>
</g>
<path d="M12.8839 20.6937V22H7.40033V20.6937H12.8839ZM12.7342 15.6592L7.95821 22H6.89688V20.9455L11.6457 14.6387H12.7342V15.6592ZM12.1015 14.6387V15.945H6.97852V14.6387H12.1015ZM18.347 20.5237V17.0131C18.347 16.75 18.2994 16.5233 18.2041 16.3328C18.1089 16.1423 17.9637 15.9949 17.7687 15.8905C17.5782 15.7862 17.3378 15.7341 17.0476 15.7341C16.78 15.7341 16.5486 15.7794 16.3536 15.8701C16.1586 15.9608 16.0066 16.0833 15.8978 16.2375C15.7889 16.3917 15.7345 16.5664 15.7345 16.7614H14.1017C14.1017 16.4711 14.172 16.1899 14.3126 15.9178C14.4532 15.6456 14.6573 15.403 14.9249 15.1898C15.1925 14.9766 15.5123 14.8088 15.8842 14.6863C16.2561 14.5639 16.6734 14.5027 17.136 14.5027C17.6893 14.5027 18.1792 14.5956 18.6055 14.7816C19.0364 14.9676 19.3743 15.2488 19.6192 15.6252C19.8687 15.9971 19.9934 16.4643 19.9934 17.0267V20.2992C19.9934 20.6348 20.0161 20.9364 20.0615 21.204C20.1114 21.4671 20.1817 21.6961 20.2724 21.8911V22H18.5919C18.5148 21.8231 18.4536 21.5986 18.4082 21.3265C18.3674 21.0498 18.347 20.7822 18.347 20.5237ZM18.5851 17.5234L18.5987 18.5371H17.4217C17.1179 18.5371 16.8503 18.5666 16.6189 18.6255C16.3876 18.6799 16.1949 18.7616 16.0407 18.8704C15.8864 18.9793 15.7708 19.1108 15.6937 19.265C15.6166 19.4192 15.578 19.5939 15.578 19.7889C15.578 19.9839 15.6234 20.1631 15.7141 20.3264C15.8048 20.4851 15.9363 20.6098 16.1087 20.7006C16.2856 20.7913 16.4987 20.8366 16.7482 20.8366C17.0838 20.8366 17.3764 20.7686 17.6258 20.6325C17.8798 20.4919 18.0794 20.3218 18.2245 20.1223C18.3697 19.9182 18.4468 19.7254 18.4559 19.544L18.9865 20.2719C18.9321 20.4579 18.8391 20.6575 18.7076 20.8706C18.5761 21.0838 18.4037 21.2879 18.1905 21.4829C17.9819 21.6734 17.7302 21.8299 17.4353 21.9524C17.1451 22.0748 16.8094 22.1361 16.4284 22.1361C15.9477 22.1361 15.5191 22.0408 15.1426 21.8503C14.7661 21.6553 14.4713 21.3945 14.2582 21.0679C14.045 20.7368 13.9384 20.3626 13.9384 19.9454C13.9384 19.5553 14.011 19.2106 14.1561 18.9113C14.3058 18.6074 14.5235 18.3534 14.8092 18.1493C15.0995 17.9452 15.4533 17.791 15.8706 17.6866C16.2878 17.5778 16.7641 17.5234 17.2993 17.5234H18.5851ZM23.4632 11.55V22H21.8167V11.55H23.4632ZM24.9463 18.401V18.2445C24.9463 17.7139 25.0234 17.2217 25.1776 16.7682C25.3318 16.3101 25.5541 15.9132 25.8444 15.5776C26.1392 15.2374 26.4975 14.9744 26.9193 14.7884C27.3456 14.5979 27.8264 14.5027 28.3616 14.5027C28.9013 14.5027 29.3821 14.5979 29.8039 14.7884C30.2303 14.9744 30.5909 15.2374 30.8857 15.5776C31.1805 15.9132 31.405 16.3101 31.5592 16.7682C31.7134 17.2217 31.7905 17.7139 31.7905 18.2445V18.401C31.7905 18.9317 31.7134 19.4238 31.5592 19.8773C31.405 20.3309 31.1805 20.7278 30.8857 21.0679C30.5909 21.4036 30.2325 21.6666 29.8107 21.8571C29.3889 22.0431 28.9104 22.1361 28.3752 22.1361C27.8355 22.1361 27.3524 22.0431 26.9261 21.8571C26.5043 21.6666 26.146 21.4036 25.8512 21.0679C25.5563 20.7278 25.3318 20.3309 25.1776 19.8773C25.0234 19.4238 24.9463 18.9317 24.9463 18.401ZM26.5859 18.2445V18.401C26.5859 18.7321 26.6199 19.0451 26.688 19.3399C26.756 19.6347 26.8626 19.8932 27.0077 20.1155C27.1529 20.3377 27.3388 20.5123 27.5656 20.6393C27.7924 20.7663 28.0623 20.8298 28.3752 20.8298C28.6791 20.8298 28.9422 20.7663 29.1644 20.6393C29.3912 20.5123 29.5771 20.3377 29.7223 20.1155C29.8674 19.8932 29.974 19.6347 30.042 19.3399C30.1146 19.0451 30.1509 18.7321 30.1509 18.401V18.2445C30.1509 17.918 30.1146 17.6095 30.042 17.3193C29.974 17.0244 29.8652 16.7636 29.7155 16.5369C29.5703 16.3101 29.3844 16.1332 29.1576 16.0062C28.9354 15.8747 28.67 15.8089 28.3616 15.8089C28.0532 15.8089 27.7856 15.8747 27.5588 16.0062C27.3366 16.1332 27.1529 16.3101 27.0077 16.5369C26.8626 16.7636 26.756 17.0244 26.688 17.3193C26.6199 17.6095 26.5859 17.918 26.5859 18.2445Z" fill="white"/>
</svg>
